<svg width="28" height="28" viewBox="0 0 28 28" fill="none" xmlns="http://www.w3.org/2000/svg">
<mask id="mask0_1036_6" style="mask-type:alpha" maskUnits="userSpaceOnUse" x="0" y="0" width="28" height="28">
<rect width="28" height="28" fill="#D9D9D9"/>
</mask>
<g mask="url(#mask0_1036_6)">
<path d="M13.0671 23.6209L13.0501 23.6052L10.9809 21.7373C10.9808 21.7372 10.9808 21.7372 10.9807 21.7371C8.88252 19.8387 6.99174 17.9588 5.307 16.0974L5.30671 16.0971C3.74134 14.3692 3 12.5209 3 10.5254C3 8.91924 3.53322 7.62764 4.59308 6.57976C5.65359 5.53122 6.96545 5 8.6 5C9.51501 5 10.3686 5.19069 11.1722 5.57066C11.9881 5.95725 12.6741 6.48022 13.2402 7.14174C13.4302 7.36373 13.7078 7.49153 14 7.49153C14.2922 7.49153 14.5698 7.36373 14.7598 7.14174C15.3259 6.48022 16.0119 5.95725 16.8278 5.57066C17.6314 5.19069 18.485 5 19.4 5C21.0345 5 22.3464 5.53122 23.4069 6.57976C24.4668 7.62764 25 8.91924 25 10.5254C25 12.5231 24.2621 14.3781 22.7051 16.1168C21.0336 17.9832 19.1312 19.8647 16.996 21.7607L16.996 21.7607L16.9904 21.7657L14.9504 23.6047L14.9329 23.6209C14.6542 23.8845 14.3585 24 14 24C13.6415 24 13.3458 23.8845 13.0671 23.6209Z" fill="white" stroke="white" stroke-width="2" stroke-linejoin="round"/>
</g>
</svg>
